<svg width="165" height="39" viewBox="0 0 165 39" fill="none" xmlns="http://www.w3.org/2000/svg">
<path d="M57.15 35.1456L58.7489 31.5183H59.417L57.4364 36.1001H56.8636L54.9187 31.5183H55.575L57.15 35.1456ZM55.3483 31.5183V36.1001H54.6443V31.5183H55.3483ZM58.9517 36.1001V31.5183H59.6557V36.1001H58.9517ZM63.1425 36.1956C62.7011 36.1956 62.3202 36.0981 62.0001 35.9032C61.6819 35.7063 61.4363 35.4319 61.2633 35.0799C61.0923 34.7259 61.0067 34.3143 61.0067 33.845C61.0067 33.3757 61.0923 32.962 61.2633 32.6041C61.4363 32.2441 61.6769 31.9637 61.9852 31.7629C62.2954 31.56 62.6573 31.4586 63.0709 31.4586C63.3096 31.4586 63.5452 31.4984 63.7779 31.5779C64.0106 31.6575 64.2224 31.7867 64.4133 31.9657C64.6042 32.1427 64.7563 32.3774 64.8697 32.6697C64.983 32.962 65.0397 33.322 65.0397 33.7495V34.0478H61.5079V33.4393H64.3238C64.3238 33.1808 64.2721 32.9501 64.1687 32.7473C64.0673 32.5444 63.9221 32.3843 63.7332 32.267C63.5462 32.1497 63.3255 32.091 63.0709 32.091C62.7906 32.091 62.5479 32.1606 62.3431 32.2998C62.1403 32.437 61.9842 32.616 61.8748 32.8367C61.7654 33.0575 61.7107 33.2941 61.7107 33.5467V33.9524C61.7107 34.2984 61.7704 34.5917 61.8897 34.8323C62.011 35.071 62.179 35.2529 62.3938 35.3782C62.6086 35.5015 62.8582 35.5632 63.1425 35.5632C63.3275 35.5632 63.4945 35.5373 63.6437 35.4856C63.7948 35.4319 63.9251 35.3524 64.0344 35.247C64.1438 35.1396 64.2283 35.0063 64.288 34.8473L64.9681 35.0382C64.8965 35.2688 64.7762 35.4717 64.6072 35.6467C64.4381 35.8197 64.2293 35.9549 63.9808 36.0524C63.7322 36.1478 63.4528 36.1956 63.1425 36.1956ZM65.8986 37.4126V35.4438H66.2804C66.3739 35.3464 66.4544 35.241 66.522 35.1277C66.5896 35.0143 66.6483 34.8801 66.698 34.725C66.7497 34.5679 66.7935 34.3769 66.8293 34.1522C66.8651 33.9255 66.8969 33.6521 66.9247 33.3319L67.0798 31.5183H69.9912V35.4438H70.6952V37.4126H69.9912V36.1001H66.6026V37.4126H65.8986ZM67.0798 35.4438H69.2872V32.1745H67.7361L67.6168 33.3319C67.567 33.8112 67.5054 34.2298 67.4318 34.5877C67.3582 34.9457 67.2409 35.2311 67.0798 35.4438ZM72.6108 35.062L74.8181 31.5183H75.6295V36.1001H74.9255V32.5563L72.7301 36.1001H71.9068V31.5183H72.6108V35.062ZM80.7279 31.5183V36.1001H80.0239V31.5183H80.7279ZM80.4535 33.7018V34.3581C80.2944 34.4177 80.1363 34.4704 79.9792 34.5161C79.8221 34.5599 79.657 34.5947 79.484 34.6206C79.311 34.6444 79.1211 34.6563 78.9143 34.6563C78.3952 34.6563 77.9786 34.5161 77.6644 34.2358C77.3522 33.9554 77.1961 33.5348 77.1961 32.974V31.5063H77.9001V32.974C77.9001 33.2086 77.9448 33.4015 78.0343 33.5527C78.1238 33.7038 78.2451 33.8161 78.3982 33.8897C78.5513 33.9633 78.7234 34.0001 78.9143 34.0001C79.2126 34.0001 79.482 33.9733 79.7226 33.9196C79.9653 33.8639 80.2089 33.7913 80.4535 33.7018ZM85.3632 33.487V34.1433H82.8337V33.487H85.3632ZM83.0007 31.5183V36.1001H82.2967V31.5183H83.0007ZM85.9001 31.5183V36.1001H85.1962V31.5183H85.9001ZM88.167 35.062L90.3744 31.5183H91.1857V36.1001H90.4817V32.5563L88.2863 36.1001H87.463V31.5183H88.167V35.062ZM93.4563 35.062L95.6637 31.5183H96.475V36.1001H95.771V32.5563L93.5756 36.1001H92.7523V31.5183H93.4563V35.062ZM95.1983 29.991H95.8546C95.8546 30.3132 95.7432 30.5767 95.5205 30.7815C95.2977 30.9863 94.9955 31.0887 94.6137 31.0887C94.2378 31.0887 93.9385 30.9863 93.7158 30.7815C93.495 30.5767 93.3847 30.3132 93.3847 29.991H94.0409C94.0409 30.1461 94.0837 30.2823 94.1692 30.3997C94.2567 30.517 94.4048 30.5757 94.6137 30.5757C94.8225 30.5757 94.9716 30.517 95.0611 30.3997C95.1526 30.2823 95.1983 30.1461 95.1983 29.991ZM102.543 36.1956C102.129 36.1956 101.766 36.0971 101.454 35.9002C101.144 35.7034 100.901 35.4279 100.726 35.074C100.553 34.72 100.467 34.3063 100.467 33.8331C100.467 33.3558 100.553 32.9392 100.726 32.5832C100.901 32.2272 101.144 31.9508 101.454 31.7539C101.766 31.5571 102.129 31.4586 102.543 31.4586C102.956 31.4586 103.318 31.5571 103.628 31.7539C103.941 31.9508 104.183 32.2272 104.356 32.5832C104.531 32.9392 104.619 33.3558 104.619 33.8331C104.619 34.3063 104.531 34.72 104.356 35.074C104.183 35.4279 103.941 35.7034 103.628 35.9002C103.318 36.0971 102.956 36.1956 102.543 36.1956ZM102.543 35.5632C102.857 35.5632 103.115 35.4826 103.318 35.3215C103.521 35.1605 103.671 34.9487 103.769 34.6862C103.866 34.4237 103.915 34.1393 103.915 33.8331C103.915 33.5268 103.866 33.2414 103.769 32.9769C103.671 32.7125 103.521 32.4987 103.318 32.3356C103.115 32.1725 102.857 32.091 102.543 32.091C102.228 32.091 101.97 32.1725 101.767 32.3356C101.564 32.4987 101.414 32.7125 101.317 32.9769C101.219 33.2414 101.171 33.5268 101.171 33.8331C101.171 34.1393 101.219 34.4237 101.317 34.6862C101.414 34.9487 101.564 35.1605 101.767 35.3215C101.97 35.4826 102.228 35.5632 102.543 35.5632ZM105.481 37.4126V35.4438H105.863C105.957 35.3464 106.037 35.241 106.105 35.1277C106.172 35.0143 106.231 34.8801 106.281 34.725C106.333 34.5679 106.376 34.3769 106.412 34.1522C106.448 33.9255 106.48 33.6521 106.508 33.3319L106.663 31.5183H109.574V35.4438H110.278V37.4126H109.574V36.1001H106.185V37.4126H105.481ZM106.663 35.4438H108.87V32.1745H107.319L107.2 33.3319C107.15 33.8112 107.088 34.2298 107.015 34.5877C106.941 34.9457 106.824 35.2311 106.663 35.4438ZM114.246 36.1001V32.1626H113.029C112.754 32.1626 112.539 32.2262 112.382 32.3535C112.224 32.4808 112.146 32.6558 112.146 32.8785C112.146 33.0973 112.216 33.2693 112.358 33.3946C112.501 33.5198 112.697 33.5825 112.945 33.5825H114.425V34.2387H112.945C112.635 34.2387 112.368 34.184 112.143 34.0747C111.918 33.9653 111.745 33.8092 111.624 33.6063C111.503 33.4015 111.442 33.1589 111.442 32.8785C111.442 32.5961 111.506 32.3535 111.633 32.1507C111.76 31.9478 111.942 31.7917 112.179 31.6823C112.417 31.573 112.701 31.5183 113.029 31.5183H114.914V36.1001H114.246ZM111.191 36.1001L112.492 33.8211H113.256L111.955 36.1001H111.191ZM119.311 31.5183V32.1745H117.188V36.1001H116.484V31.5183H119.311ZM122.993 32.1745V31.5183H126.716V32.1745H125.213V36.1001H124.509V32.1745H122.993ZM129.131 36.2075C128.84 36.2075 128.577 36.1528 128.34 36.0434C128.104 35.9321 127.916 35.772 127.776 35.5632C127.637 35.3524 127.568 35.0978 127.568 34.7995C127.568 34.537 127.619 34.3242 127.723 34.1612C127.826 33.9961 127.964 33.8669 128.137 33.7734C128.31 33.6799 128.501 33.6103 128.71 33.5646C128.921 33.5169 129.133 33.4791 129.345 33.4512C129.624 33.4154 129.85 33.3886 130.023 33.3707C130.198 33.3508 130.325 33.318 130.404 33.2723C130.486 33.2265 130.527 33.147 130.527 33.0336V33.0098C130.527 32.7154 130.446 32.4867 130.285 32.3237C130.126 32.1606 129.884 32.0791 129.56 32.0791C129.224 32.0791 128.961 32.1527 128.77 32.2998C128.579 32.447 128.445 32.6041 128.367 32.7711L127.699 32.5325C127.818 32.2541 127.977 32.0373 128.176 31.8822C128.377 31.7251 128.596 31.6157 128.832 31.5541C129.071 31.4904 129.306 31.4586 129.536 31.4586C129.684 31.4586 129.853 31.4765 130.043 31.5123C130.236 31.5461 130.422 31.6167 130.601 31.7241C130.782 31.8315 130.932 31.9936 131.052 32.2103C131.171 32.4271 131.231 32.7174 131.231 33.0813V36.1001H130.527V35.4796H130.491C130.443 35.5791 130.364 35.6855 130.252 35.7988C130.141 35.9122 129.993 36.0086 129.808 36.0882C129.623 36.1677 129.397 36.2075 129.131 36.2075ZM129.238 35.5751C129.516 35.5751 129.751 35.5204 129.942 35.411C130.135 35.3017 130.28 35.1605 130.378 34.9875C130.477 34.8144 130.527 34.6325 130.527 34.4416V33.7973C130.497 33.8331 130.431 33.8659 130.33 33.8957C130.23 33.9235 130.115 33.9484 129.984 33.9703C129.855 33.9902 129.728 34.0081 129.605 34.024C129.484 34.0379 129.385 34.0498 129.31 34.0598C129.127 34.0836 128.956 34.1224 128.797 34.1761C128.639 34.2278 128.512 34.3063 128.415 34.4117C128.319 34.5152 128.272 34.6563 128.272 34.8353C128.272 35.0799 128.362 35.2649 128.543 35.3902C128.726 35.5134 128.958 35.5751 129.238 35.5751ZM135.432 36.1001V31.5183H137.306C137.799 31.5183 138.191 31.6296 138.481 31.8524C138.771 32.0751 138.917 32.3694 138.917 32.7353C138.917 33.0137 138.834 33.2295 138.669 33.3826C138.504 33.5338 138.292 33.6362 138.034 33.6899C138.203 33.7137 138.367 33.7734 138.526 33.8688C138.687 33.9643 138.82 34.0956 138.926 34.2626C139.031 34.4277 139.084 34.6305 139.084 34.8711C139.084 35.1058 139.024 35.3156 138.905 35.5005C138.785 35.6855 138.614 35.8316 138.392 35.939C138.169 36.0464 137.902 36.1001 137.592 36.1001H135.432ZM136.101 35.4558H137.592C137.835 35.4558 138.025 35.3981 138.162 35.2828C138.299 35.1674 138.368 35.0103 138.368 34.8115C138.368 34.5748 138.299 34.3889 138.162 34.2536C138.025 34.1164 137.835 34.0478 137.592 34.0478H136.101V35.4558ZM136.101 33.4393H137.306C137.495 33.4393 137.657 33.4134 137.792 33.3617C137.927 33.3081 138.031 33.2325 138.102 33.135C138.176 33.0356 138.213 32.9183 138.213 32.7831C138.213 32.5902 138.132 32.439 137.971 32.3296C137.81 32.2183 137.588 32.1626 137.306 32.1626H136.101V33.4393ZM140.14 34.9308H140.892C140.908 35.1376 141.001 35.2947 141.172 35.4021C141.345 35.5095 141.57 35.5632 141.846 35.5632C142.129 35.5632 142.37 35.5055 142.571 35.3902C142.772 35.2728 142.873 35.0839 142.873 34.8234C142.873 34.6703 142.835 34.537 142.759 34.4237C142.684 34.3083 142.577 34.2188 142.44 34.1552C142.303 34.0916 142.141 34.0598 141.954 34.0598H141.166V33.4274H141.954C142.234 33.4274 142.441 33.3637 142.574 33.2365C142.709 33.1092 142.777 32.9501 142.777 32.7592C142.777 32.5544 142.704 32.3903 142.559 32.267C142.414 32.1417 142.208 32.0791 141.942 32.0791C141.673 32.0791 141.45 32.1397 141.271 32.261C141.092 32.3804 140.997 32.5345 140.987 32.7234H140.248C140.255 32.4768 140.331 32.259 140.474 32.0701C140.617 31.8792 140.812 31.7301 141.059 31.6227C141.305 31.5133 141.588 31.4586 141.906 31.4586C142.228 31.4586 142.508 31.5153 142.744 31.6286C142.983 31.74 143.167 31.8921 143.296 32.085C143.427 32.2759 143.493 32.4927 143.493 32.7353C143.493 32.9938 143.42 33.2027 143.275 33.3617C143.13 33.5208 142.948 33.6342 142.729 33.7018V33.7495C142.902 33.7615 143.052 33.8171 143.18 33.9166C143.309 34.014 143.409 34.1423 143.481 34.3014C143.553 34.4585 143.588 34.6325 143.588 34.8234C143.588 35.1018 143.514 35.3444 143.365 35.5512C143.216 35.7561 143.011 35.9152 142.75 36.0285C142.49 36.1399 142.192 36.1956 141.858 36.1956C141.534 36.1956 141.244 36.1429 140.987 36.0375C140.731 35.9301 140.527 35.7819 140.376 35.593C140.227 35.4021 140.148 35.1813 140.14 34.9308ZM145.308 37.8183C145.189 37.8183 145.082 37.8083 144.989 37.7884C144.895 37.7706 144.831 37.7527 144.795 37.7348L144.974 37.1143C145.145 37.1581 145.296 37.174 145.427 37.162C145.558 37.1501 145.675 37.0914 145.776 36.986C145.88 36.8826 145.974 36.7146 146.06 36.4819L146.191 36.124L144.497 31.5183H145.26L146.525 35.1694H146.573L147.837 31.5183H148.601L146.656 36.7683C146.569 37.0049 146.46 37.2008 146.331 37.3559C146.202 37.513 146.052 37.6294 145.881 37.7049C145.712 37.7805 145.521 37.8183 145.308 37.8183ZM149.545 32.1745V31.5183H153.268V32.1745H151.764V36.1001H151.06V32.1745H149.545ZM154.309 32.1745V31.5183H158.032V32.1745H156.529V36.1001H155.825V32.1745H154.309ZM162.092 36.1001V32.1626H160.875C160.601 32.1626 160.385 32.2262 160.228 32.3535C160.071 32.4808 159.992 32.6558 159.992 32.8785C159.992 33.0973 160.063 33.2693 160.204 33.3946C160.347 33.5198 160.543 33.5825 160.792 33.5825H162.271V34.2387H160.792C160.482 34.2387 160.214 34.184 159.989 34.0747C159.765 33.9653 159.592 33.8092 159.47 33.6063C159.349 33.4015 159.288 33.1589 159.288 32.8785C159.288 32.5961 159.352 32.3535 159.479 32.1507C159.607 31.9478 159.788 31.7917 160.025 31.6823C160.264 31.573 160.547 31.5183 160.875 31.5183H162.761V36.1001H162.092ZM159.038 36.1001L160.338 33.8211H161.102L159.801 36.1001H159.038Z" fill="#333152"/>
<path d="M54.8494 7.72727H57.0568L62.2472 20.4048H62.4261L67.6165 7.72727H69.8239V23H68.0938V11.3963H67.9446L63.1719 23H61.5014L56.7287 11.3963H56.5795V23H54.8494V7.72727ZM78.096 23.2386C76.9923 23.2386 76.0402 22.995 75.2398 22.5078C74.4443 22.0156 73.8303 21.3295 73.3978 20.4496C72.9703 19.5646 72.7565 18.5355 72.7565 17.3622C72.7565 16.1889 72.9703 15.1548 73.3978 14.2599C73.8303 13.3601 74.4319 12.6591 75.2025 12.157C75.9781 11.6499 76.8829 11.3963 77.917 11.3963C78.5136 11.3963 79.1027 11.4957 79.6844 11.6946C80.2661 11.8935 80.7955 12.2166 81.2728 12.6641C81.7501 13.1065 82.1304 13.6932 82.4138 14.424C82.6972 15.1548 82.8389 16.0547 82.8389 17.1236V17.8693H74.0093V16.348H81.0491C81.0491 15.7017 80.9198 15.125 80.6613 14.6179C80.4078 14.1108 80.0448 13.7106 79.5725 13.4173C79.1052 13.1239 78.5534 12.9773 77.917 12.9773C77.216 12.9773 76.6095 13.1513 76.0974 13.4993C75.5903 13.8423 75.2 14.2898 74.9266 14.8416C74.6531 15.3935 74.5164 15.9851 74.5164 16.6165V17.6307C74.5164 18.4957 74.6656 19.229 74.9639 19.8306C75.2671 20.4272 75.6872 20.8821 76.2242 21.1953C76.7611 21.5036 77.385 21.6577 78.096 21.6577C78.5583 21.6577 78.9759 21.593 79.3488 21.4638C79.7267 21.3295 80.0523 21.1307 80.3257 20.8672C80.5992 20.5987 80.8105 20.2656 80.9596 19.8679L82.6599 20.3452C82.4809 20.9219 82.1801 21.429 81.7575 21.8665C81.335 22.299 80.8129 22.6371 80.1915 22.8807C79.57 23.1193 78.8715 23.2386 78.096 23.2386ZM89.8414 23.2386C88.8868 23.2386 88.0441 22.9975 87.3133 22.5153C86.5825 22.0281 86.0107 21.342 85.5981 20.457C85.1855 19.5671 84.9791 18.5156 84.9791 17.3026C84.9791 16.0994 85.1855 15.0554 85.5981 14.1705C86.0107 13.2855 86.585 12.6019 87.3208 12.1197C88.0566 11.6374 88.9067 11.3963 89.8712 11.3963C90.6169 11.3963 91.2061 11.5206 91.6386 11.7692C92.0761 12.0128 92.4092 12.2912 92.6379 12.6044C92.8715 12.9126 93.053 13.1662 93.1823 13.3651H93.3314V7.72727H95.0914V23H93.3911V21.2401H93.1823C93.053 21.4489 92.8691 21.7124 92.6304 22.0305C92.3918 22.3437 92.0512 22.6246 91.6088 22.8732C91.1663 23.1168 90.5771 23.2386 89.8414 23.2386ZM90.08 21.6577C90.786 21.6577 91.3825 21.4737 91.8698 21.1058C92.357 20.733 92.7274 20.2184 92.9809 19.5621C93.2345 18.9009 93.3612 18.1378 93.3612 17.2727C93.3612 16.4176 93.2369 15.6694 92.9884 15.0281C92.7398 14.3817 92.3719 13.8796 91.8847 13.5217C91.3975 13.1587 90.7959 12.9773 90.08 12.9773C89.3343 12.9773 88.7128 13.1687 88.2156 13.5515C87.7235 13.9293 87.3531 14.4439 87.1045 15.0952C86.8609 15.7415 86.7391 16.4673 86.7391 17.2727C86.7391 18.0881 86.8634 18.8288 87.1119 19.495C87.3655 20.1562 87.7384 20.6832 88.2306 21.076C88.7277 21.4638 89.3442 21.6577 90.08 21.6577Z" fill="#FF454E"/>
<path d="M104.704 23V7.72727H113.862V9.3679H106.553V14.5284H113.176V16.169H106.553V23H104.704ZM120.603 23.2386C119.569 23.2386 118.662 22.9925 117.881 22.5004C117.106 22.0082 116.499 21.3196 116.062 20.4347C115.629 19.5497 115.413 18.5156 115.413 17.3324C115.413 16.1392 115.629 15.0977 116.062 14.2077C116.499 13.3178 117.106 12.6268 117.881 12.1346C118.662 11.6424 119.569 11.3963 120.603 11.3963C121.637 11.3963 122.542 11.6424 123.318 12.1346C124.098 12.6268 124.705 13.3178 125.137 14.2077C125.575 15.0977 125.793 16.1392 125.793 17.3324C125.793 18.5156 125.575 19.5497 125.137 20.4347C124.705 21.3196 124.098 22.0082 123.318 22.5004C122.542 22.9925 121.637 23.2386 120.603 23.2386ZM120.603 21.6577C121.389 21.6577 122.035 21.4563 122.542 21.0536C123.049 20.6509 123.424 20.1214 123.668 19.4652C123.912 18.8089 124.033 18.098 124.033 17.3324C124.033 16.5668 123.912 15.8533 123.668 15.1921C123.424 14.5309 123.049 13.9964 122.542 13.5888C122.035 13.1811 121.389 12.9773 120.603 12.9773C119.818 12.9773 119.171 13.1811 118.664 13.5888C118.157 13.9964 117.782 14.5309 117.538 15.1921C117.294 15.8533 117.173 16.5668 117.173 17.3324C117.173 18.098 117.294 18.8089 117.538 19.4652C117.782 20.1214 118.157 20.6509 118.664 21.0536C119.171 21.4563 119.818 21.6577 120.603 21.6577ZM128.48 23V11.5455H130.18V13.2756H130.3C130.508 12.7088 130.886 12.2489 131.433 11.896C131.98 11.543 132.596 11.3665 133.282 11.3665C133.412 11.3665 133.573 11.369 133.767 11.3739C133.961 11.3789 134.108 11.3864 134.207 11.3963V13.1861C134.148 13.1712 134.011 13.1488 133.797 13.119C133.588 13.0842 133.367 13.0668 133.133 13.0668C132.577 13.0668 132.079 13.1836 131.642 13.4173C131.209 13.646 130.866 13.9641 130.613 14.3718C130.364 14.7745 130.24 15.2344 130.24 15.7514V23H128.48ZM136.293 23V11.5455H137.994V13.3352H138.143C138.381 12.7237 138.767 12.2489 139.299 11.9109C139.831 11.5678 140.47 11.3963 141.215 11.3963C141.971 11.3963 142.6 11.5678 143.102 11.9109C143.609 12.2489 144.004 12.7237 144.288 13.3352H144.407C144.7 12.7436 145.14 12.2738 145.727 11.9258C146.314 11.5728 147.017 11.3963 147.837 11.3963C148.862 11.3963 149.699 11.717 150.351 12.3583C151.002 12.9947 151.328 13.9865 151.328 15.3338V23H149.568V15.3338C149.568 14.4886 149.336 13.8846 148.874 13.5217C148.412 13.1587 147.867 12.9773 147.241 12.9773C146.435 12.9773 145.812 13.2209 145.369 13.7081C144.927 14.1903 144.705 14.8018 144.705 15.5426V23H142.916V15.1548C142.916 14.5036 142.704 13.979 142.282 13.5813C141.859 13.1786 141.315 12.9773 140.649 12.9773C140.191 12.9773 139.764 13.0991 139.366 13.3427C138.973 13.5863 138.655 13.9244 138.411 14.3569C138.173 14.7844 138.053 15.2791 138.053 15.8409V23H136.293ZM157.916 23.2685C157.19 23.2685 156.532 23.1317 155.94 22.8583C155.348 22.5799 154.878 22.1797 154.53 21.6577C154.182 21.1307 154.008 20.4943 154.008 19.7486C154.008 19.0923 154.138 18.5604 154.396 18.1527C154.655 17.7401 155 17.4169 155.433 17.1832C155.865 16.9496 156.343 16.7756 156.865 16.6612C157.392 16.5419 157.921 16.4474 158.453 16.3778C159.149 16.2884 159.713 16.2212 160.146 16.1765C160.583 16.1268 160.902 16.0447 161.1 15.9304C161.304 15.8161 161.406 15.6172 161.406 15.3338V15.2741C161.406 14.5384 161.205 13.9666 160.802 13.5589C160.404 13.1513 159.8 12.9474 158.99 12.9474C158.15 12.9474 157.491 13.1314 157.014 13.4993C156.536 13.8672 156.201 14.2599 156.007 14.6776L154.337 14.081C154.635 13.3849 155.033 12.843 155.53 12.4553C156.032 12.0625 156.579 11.7891 157.17 11.6349C157.767 11.4759 158.354 11.3963 158.93 11.3963C159.298 11.3963 159.721 11.4411 160.198 11.5305C160.68 11.6151 161.145 11.7915 161.593 12.06C162.045 12.3285 162.42 12.7337 162.719 13.2756C163.017 13.8175 163.166 14.5433 163.166 15.4531V23H161.406V21.4489H161.317C161.197 21.6974 160.998 21.9634 160.72 22.2468C160.442 22.5302 160.071 22.7713 159.609 22.9702C159.147 23.169 158.582 23.2685 157.916 23.2685ZM158.185 21.6875C158.881 21.6875 159.467 21.5508 159.945 21.2773C160.427 21.0039 160.79 20.6509 161.033 20.2184C161.282 19.7859 161.406 19.331 161.406 18.8537V17.2429C161.332 17.3324 161.168 17.4144 160.914 17.489C160.665 17.5586 160.377 17.6207 160.049 17.6754C159.726 17.7251 159.41 17.7699 159.102 17.8097C158.799 17.8445 158.552 17.8743 158.364 17.8991C157.906 17.9588 157.479 18.0558 157.081 18.19C156.688 18.3192 156.37 18.5156 156.126 18.7791C155.888 19.0376 155.768 19.3906 155.768 19.8381C155.768 20.4496 155.995 20.9119 156.447 21.2251C156.904 21.5334 157.484 21.6875 158.185 21.6875Z" fill="#333152"/>
<path d="M21.9091 14.3204C21.8925 10.2292 20.3364 5.26693 13.5804 5.04273C6.13822 4.41802 2.07861 10.2653 1.3261 13.784C-0.0414317 19.5817 3.27435 23.7601 4.22928 24.6989C7.93829 28.0334 11.2668 30.6394 12.533 31.7219C12.939 32.0627 16.7174 35.1131 17.3728 35.6763C17.313 35.6674 18.2514 36.4605 19.0078 37.1099C20.2694 38.2904 21.2922 38.0467 21.7958 37.0471C21.8114 37.0143 21.8243 36.9802 21.8345 36.9454C22.0613 36.221 21.8668 28.3633 21.9393 28.0553" stroke="#333152" stroke-miterlimit="10"/>
<path d="M21.8949 14.1465V14.5149C22.1393 14.5149 22.3775 14.6023 22.5489 14.7544C22.7377 14.9223 22.8442 15.1643 22.8563 15.4554C22.812 16.1554 22.3212 16.4038 21.9136 16.4038C21.6694 16.4038 21.431 16.3165 21.2598 16.1643C21.0708 15.9965 20.9646 15.7544 20.9524 15.4633C20.9965 14.7633 21.4864 14.5149 21.8949 14.5149V14.1465ZM21.8949 14.1465C21.2613 14.1465 20.63 14.5731 20.5828 15.4593C20.6099 16.3227 21.2631 16.7722 21.9136 16.7722C22.5474 16.7722 23.1787 16.3456 23.2258 15.4593C23.1988 14.596 22.5456 14.1465 21.8949 14.1465Z" fill="#333152"/>
<path d="M22.5286 15.4591C22.4753 16.3228 21.2996 16.2441 21.281 15.4591C21.3343 14.5957 22.5101 14.6743 22.5286 15.4591Z" fill="#FF454E"/>
<path d="M22.4927 8.41094C23.0339 7.84441 23.6361 7.33911 24.2881 6.90417C24.9495 6.46201 25.6543 6.08849 26.3918 5.78943C28.6683 4.86887 31.1705 4.65696 33.5699 5.18149C33.973 5.27043 34.3713 5.38019 34.763 5.51033C34.8616 5.54202 34.9588 5.5772 35.0563 5.61202C35.1537 5.64684 35.2502 5.68442 35.3471 5.7209C35.3956 5.73932 35.4434 5.7594 35.4914 5.77911L35.6349 5.83862C35.7303 5.87933 35.825 5.92189 35.92 5.96371C36.6791 6.30982 37.3978 6.73833 38.063 7.24148C38.3959 7.49409 38.7142 7.76553 39.016 8.05447C39.3182 8.34418 39.604 8.65047 39.8721 8.9719C40.1393 9.2938 40.3885 9.63015 40.6187 9.97943C41.3013 11.0253 41.8121 12.1734 42.1318 13.3802C42.553 14.9715 42.6516 16.6307 42.4221 18.2605C42.3667 18.6638 42.2883 19.0633 42.1934 19.4579C42.0986 19.8526 41.9831 20.2407 41.8489 20.6219C41.5839 21.3814 41.2428 22.1122 40.8307 22.8033C40.4229 23.4858 39.9464 24.125 39.4085 24.7109C38.878 25.2876 38.2859 25.8048 37.643 26.2532C38.1423 25.6582 38.5996 25.0433 38.9981 24.399C39.3929 23.7606 39.7346 23.091 40.0199 22.3969C40.5776 21.0354 40.9009 19.5895 40.9761 18.1205C41.0471 16.6714 40.8711 15.2228 40.4471 13.862C40.023 12.5011 39.3511 11.2299 38.4521 10.1484C38.0024 9.60762 37.4979 9.11478 36.9466 8.6777C36.3911 8.23941 35.7934 7.85718 35.1624 7.53661C33.8947 6.89459 32.4921 6.49261 31.0474 6.34394C30.3207 6.26898 29.5888 6.25665 28.86 6.3071C28.1218 6.3585 27.3892 6.4719 26.67 6.64607C25.9396 6.82311 25.225 7.06002 24.5336 7.35441C23.8282 7.65614 23.1461 8.00927 22.4927 8.41094Z" fill="#FF454E"/>
<path d="M33.2773 17.3537H26.9043V11.0928C26.9043 10.9463 26.846 10.8057 26.7421 10.702C26.6383 10.5984 26.4975 10.5402 26.3507 10.5402H21.9331C21.9822 10.7073 22.0283 10.8771 22.0704 11.0503C22.1176 11.2451 22.1607 11.4435 22.1996 11.6455H25.7979V17.9064C25.7979 18.0529 25.8562 18.1935 25.96 18.2972C26.0638 18.4008 26.2046 18.459 26.3514 18.459H32.7237V25.9546H26.3507C26.2039 25.9546 26.0631 26.0128 25.9593 26.1164C25.8554 26.2201 25.7971 26.3607 25.7971 26.5072V32.7681H22.4917C22.4939 33.1423 22.4952 33.5146 22.4954 33.8735H26.3507C26.4975 33.8735 26.6383 33.8152 26.7421 33.7116C26.846 33.6079 26.9043 33.4674 26.9043 33.3208V27.0599H33.2773C33.4242 27.0599 33.565 27.0017 33.6688 26.898C33.7726 26.7944 33.8309 26.6538 33.8309 26.5072V17.9064C33.8309 17.7598 33.7726 17.6192 33.6688 17.5156C33.565 17.4119 33.4242 17.3537 33.2773 17.3537Z" fill="#333152"/>
<path d="M18.16 26.5072C18.16 26.3607 18.1017 26.2201 17.9979 26.1164C17.8941 26.0128 17.7532 25.9546 17.6064 25.9546H11.2334V18.459H17.6064C17.7532 18.459 17.8941 18.4008 17.9979 18.2972C18.1017 18.1935 18.16 18.0529 18.16 17.9064V11.6455H21.0971C21.0173 11.2716 20.9161 10.9025 20.794 10.5402H17.6064C17.4596 10.5402 17.3188 10.5984 17.215 10.702C17.1112 10.8057 17.0528 10.9463 17.0528 11.0928V17.3537H10.6798C10.533 17.3537 10.3922 17.4119 10.2884 17.5156C10.1845 17.6192 10.1262 17.7598 10.1262 17.9064V26.5072C10.1262 26.6538 10.1845 26.7944 10.2884 26.898C10.3922 27.0017 10.533 27.0599 10.6798 27.0599H17.0528V33.3208C17.0528 33.4674 17.1112 33.6079 17.215 33.7116C17.3188 33.8152 17.4596 33.8735 17.6064 33.8735H21.4243C21.4243 33.5151 21.4228 33.1426 21.4206 32.7681H18.16V26.5072Z" fill="#333152"/>
<path d="M18.6394 24.1189C18.477 23.6012 18.3033 23.1257 18.15 22.7063C17.8536 21.8942 17.6193 21.2529 17.608 20.7273C17.596 20.1363 17.8754 19.7366 18.4875 19.4691L18.5102 19.4591H18.5351C19.4105 19.43 19.4417 19.4319 19.5347 19.4378C19.6085 19.4424 19.7314 19.4499 20.5287 19.4411L20.5315 19.699C19.7248 19.708 19.6008 19.7003 19.5186 19.6951C19.4365 19.69 19.4079 19.6881 18.5687 19.7161C18.067 19.9414 17.8566 20.2437 17.8662 20.7229C17.876 21.2058 18.1037 21.8294 18.3921 22.6186C18.5462 23.0408 18.7209 23.5191 18.8852 24.0426L18.6394 24.1189Z" fill="#333152"/>
<path d="M25.2374 24.1189L24.9908 24.0417C25.1551 23.5183 25.3298 23.0399 25.4839 22.6178C25.7721 21.8286 26.0006 21.205 26.0096 20.7222C26.0194 20.2432 25.809 19.9407 25.3071 19.7154C24.4686 19.6874 24.438 19.6894 24.3574 19.6944C24.2767 19.6994 24.1512 19.7071 23.3445 19.6983L23.3473 19.4403C24.1446 19.4492 24.2677 19.4414 24.3413 19.437C24.4336 19.4311 24.4655 19.4293 25.3409 19.4584H25.3658L25.3885 19.4683C26.0004 19.7356 26.28 20.1356 26.268 20.7266C26.2573 21.2522 26.0231 21.8935 25.7266 22.7053C25.5734 23.1241 25.3998 23.6003 25.2374 24.1189Z" fill="#333152"/>
<path d="M21.9101 28.3927H21.9027C21.3165 28.3898 20.7535 28.0223 20.182 27.269C19.6602 26.5818 19.1261 25.5675 18.5491 24.1681C18.5376 24.1402 18.5317 24.1102 18.5317 24.0799C18.5318 24.0497 18.5378 24.0198 18.5495 23.9918C18.5611 23.9639 18.5782 23.9386 18.5996 23.9172C18.6211 23.8959 18.6466 23.879 18.6746 23.8675C18.7026 23.8559 18.7326 23.8501 18.7629 23.8501C18.7932 23.8502 18.8232 23.8562 18.8512 23.8678C18.8791 23.8795 18.9045 23.8965 18.9259 23.9179C18.9473 23.9393 18.9642 23.9648 18.9757 23.9927C20.0667 26.6389 21.0249 27.9274 21.9051 27.932H21.9096C22.334 27.932 22.7916 27.6225 23.269 27.0109C23.7829 26.3538 24.3165 25.3654 24.9009 23.9896C24.912 23.9608 24.9288 23.9344 24.9504 23.9122C24.9719 23.89 24.9976 23.8723 25.0261 23.8602C25.0546 23.8481 25.0853 23.8419 25.1162 23.8419C25.1472 23.8419 25.1778 23.8481 25.2063 23.8602C25.2348 23.8723 25.2606 23.89 25.2821 23.9122C25.3036 23.9344 25.3205 23.9608 25.3316 23.9896C25.3427 24.0185 25.3478 24.0492 25.3468 24.0801C25.3457 24.111 25.3384 24.1414 25.3253 24.1694C24.7251 25.5828 24.1713 26.605 23.6323 27.2942C23.0553 28.0331 22.4917 28.3927 21.9101 28.3927Z" fill="#FF454E"/>
<path d="M20.6375 20.0461C20.2334 19.7897 19.9097 19.575 20.354 19.2849C20.8034 18.9012 21.1429 19.0075 21.1331 19.2902C21.1479 19.8744 21.1901 20.2585 20.6375 20.0461Z" fill="#FF454E"/>
<path d="M23.1862 20.0461C23.5903 19.7897 23.914 19.575 23.4694 19.2849C23.0203 18.9012 22.6808 19.0075 22.6905 19.2902C22.6758 19.8744 22.6335 20.2585 23.1862 20.0461Z" fill="#FF454E"/>
</svg>
